<?xml version="1.0" encoding="UTF-8"?>
<svg xmlns="http://www.w3.org/2000/svg" viewBox="0 0 64 64" width="64" height="64">
  <!-- Gold accent border -->
  <rect x="2" y="2" width="60" height="60" rx="8" fill="none" stroke="#D4AF37" stroke-width="2"/>
  
  <!-- Bear face -->
  <circle cx="32" cy="32" r="18" fill="#8B4513"/>
  
  <!-- Bear ears -->
  <circle cx="20" cy="18" r="8" fill="#8B4513"/>
  <circle cx="44" cy="18" r="8" fill="#8B4513"/>
  
  <!-- Inner ears -->
  <circle cx="20" cy="18" r="5" fill="#A0826D"/>
  <circle cx="44" cy="18" r="5" fill="#A0826D"/>
  
  <!-- Eyes -->
  <circle cx="26" cy="30" r="3" fill="#2F2F2F"/>
  <circle cx="38" cy="30" r="3" fill="#2F2F2F"/>
  
  <!-- Eye highlights -->
  <circle cx="27" cy="29" r="1" fill="white"/>
  <circle cx="39" cy="29" r="1" fill="white"/>
  
  <!-- Snout -->
  <ellipse cx="32" cy="38" rx="8" ry="6" fill="#A0826D"/>
  
  <!-- Nose -->
  <ellipse cx="32" cy="36" rx="3" ry="2.5" fill="#2F2F2F"/>
  
  <!-- Mouth -->
  <path d="M 32 36 L 32 40" stroke="#2F2F2F" stroke-width="1.5" stroke-linecap="round"/>
  <path d="M 32 40 Q 28 42 26 40" stroke="#2F2F2F" stroke-width="1.5" fill="none" stroke-linecap="round"/>
  <path d="M 32 40 Q 36 42 38 40" stroke="#2F2F2F" stroke-width="1.5" fill="none" stroke-linecap="round"/>
  
  <!-- Gold heart accent -->
  <path d="M 32 50 L 28 46 Q 26 44 28 42 Q 30 40 32 42 Q 34 40 36 42 Q 38 44 36 46 Z" fill="#D4AF37" opacity="0.8"/>
</svg>
